<?xml version="1.0" ?>
<svg xmlns="http://www.w3.org/2000/svg" version="1.1" viewBox="0 0 361 241" width="361" height="241">
  <g fill="black" stroke="none">
    <path d="M 171 208 L 169 208 L 168 209 L 168 212 L 167 213 L 166 213 L 166 214 L 165 215 L 165 216 L 164 217 L 164 218 L 163 219 L 163 220 L 161 222 L 161 224 L 159 226 L 159 227 L 158 228 L 158 229 L 157 230 L 157 231 L 155 233 L 150 233 L 149 232 L 149 231 L 147 231 L 147 233 L 148 234 L 148 235 L 149 236 L 149 237 L 150 238 L 150 240 L 155 240 L 155 238 L 157 236 L 157 235 L 158 234 L 158 233 L 159 232 L 159 231 L 161 229 L 161 228 L 162 227 L 162 225 L 164 223 L 164 222 L 166 220 L 166 218 L 167 217 L 167 216 L 168 215 L 168 213 L 169 212 L 170 212 L 170 211 L 171 210 Z"/>
    <path d="M 182 188 L 180 188 L 179 189 L 179 190 L 178 191 L 178 192 L 176 194 L 176 197 L 175 198 L 174 198 L 174 199 L 172 201 L 172 203 L 171 204 L 171 206 L 173 206 L 173 205 L 174 204 L 174 203 L 175 202 L 175 201 L 176 200 L 176 198 L 177 197 L 178 197 L 178 196 L 179 195 L 179 194 L 180 193 L 180 192 L 182 190 Z"/>
    <path d="M 357 150 L 357 154 L 358 155 L 358 162 L 359 163 L 359 172 L 358 173 L 358 182 L 357 183 L 357 187 L 360 187 L 360 150 Z"/>
    <path d="M 222 139 L 222 140 L 221 141 L 221 142 L 220 143 L 220 144 L 219 145 L 219 146 L 218 147 L 218 150 L 222 150 L 223 151 L 223 158 L 225 158 L 225 140 L 224 139 Z"/>
    <path d="M 213 130 L 211 130 L 211 132 L 210 133 L 209 133 L 209 134 L 208 135 L 208 136 L 206 138 L 206 139 L 205 140 L 205 142 L 203 144 L 203 145 L 202 146 L 202 147 L 201 148 L 201 149 L 200 150 L 200 152 L 199 153 L 198 153 L 198 154 L 197 155 L 197 156 L 196 157 L 196 158 L 195 159 L 195 160 L 194 161 L 194 162 L 193 163 L 193 164 L 192 165 L 192 167 L 194 167 L 194 166 L 195 165 L 195 164 L 196 163 L 196 162 L 197 161 L 197 160 L 198 159 L 198 158 L 199 157 L 199 156 L 200 155 L 200 153 L 201 152 L 202 152 L 202 151 L 203 150 L 203 149 L 204 148 L 204 147 L 206 145 L 206 143 L 207 142 L 207 141 L 209 139 L 209 138 L 210 137 L 210 136 L 211 135 L 211 133 L 212 132 L 213 132 Z"/>
    <path d="M 319 102 L 316 102 L 315 103 L 313 103 L 312 104 L 311 104 L 310 105 L 309 105 L 309 107 L 312 107 L 313 108 L 316 108 L 317 109 L 319 109 Z"/>
    <path d="M 75 99 L 75 240 L 77 240 L 77 114 L 78 113 L 84 113 L 84 111 L 78 102 L 78 100 Z"/>
    <path d="M 148 96 L 148 98 L 149 99 L 149 102 L 152 105 L 154 105 L 154 104 L 156 102 L 156 101 L 157 100 L 157 99 L 158 98 L 158 96 L 156 96 L 155 97 L 151 97 L 150 96 Z"/>
    <path d="M 357 21 L 357 25 L 358 26 L 358 30 L 359 31 L 359 51 L 358 52 L 358 57 L 357 58 L 357 62 L 360 62 L 360 21 Z"/>
    <path d="M 0 0 L 1 240 Z"/>
  </g>
</svg>
